<?xml version="1.0" encoding="UTF-8" standalone="no"?>
<svg
   width="70"
   height="70"
   viewBox="0 0 70 70"
   version="1.1"
   id="svg33"
   sodipodi:docname="icon.svg"
   inkscape:version="1.1.2 (0a00cf5339, 2022-02-04)"
   xmlns:inkscape="http://www.inkscape.org/namespaces/inkscape"
   xmlns:sodipodi="http://sodipodi.sourceforge.net/DTD/sodipodi-0.dtd"
   xmlns:xlink="http://www.w3.org/1999/xlink"
   xmlns="http://www.w3.org/2000/svg"
   xmlns:svg="http://www.w3.org/2000/svg">
  <sodipodi:namedview
     id="namedview35"
     pagecolor="#ffffff"
     bordercolor="#666666"
     borderopacity="1.0"
     inkscape:pageshadow="2"
     inkscape:pageopacity="0.0"
     inkscape:pagecheckerboard="0"
     showgrid="false"
     inkscape:zoom="5.4649253"
     inkscape:cx="9.5152262"
     inkscape:cy="23.60508"
     inkscape:window-width="1366"
     inkscape:window-height="705"
     inkscape:window-x="0"
     inkscape:window-y="34"
     inkscape:window-maximized="1"
     inkscape:current-layer="g29" />
  <defs
     id="defs12">
    <path
       id="a"
       d="M4 0h61c4 0 5 1 5 5v60c0 4-1 5-5 5H4c-3 0-4-1-4-5V5c0-4 1-5 4-5z" />
    <linearGradient
       id="c"
       x1="100%"
       x2="0%"
       y1="0%"
       y2="100%">
      <stop
         offset="0%"
         stop-color="#B06161"
         id="stop3" />
      <stop
         offset="45.785%"
         stop-color="#984E4E"
         id="stop5" />
      <stop
         offset="100%"
         stop-color="#7C3838"
         id="stop7" />
    </linearGradient>
    <path
       id="d"
       d="M41.8 27.25c-3.982-7.332-6.249-10.999-6.8-11-.55-.001-2.816 3.666-6.8 11-8.196 1.654-12.36 2.777-12.492 3.369-.111.496 2.652 3.74 8.29 9.733-1.061 8.252-1.387 12.544-.978 12.876.45.365 4.444-1.23 11.98-4.784 7.621 3.535 11.658 5.091 12.11 4.668.357-.334-.012-4.587-1.107-12.76 5.629-5.956 8.397-9.176 8.305-9.66-.117-.612-4.287-1.76-12.508-3.441zm.477 11.872l1.715 10.135L35 44.475V21.238l4.5 9.227 10.054 1.48-7.277 7.177z" />
    <path
       id="e"
       d="M41.8 25.25c-3.982-7.332-6.249-10.999-6.8-11-.55-.001-2.816 3.666-6.8 11-8.196 1.654-12.36 2.777-12.492 3.369-.111.496 2.652 3.74 8.29 9.733-1.061 8.252-1.387 12.544-.978 12.876.45.365 4.444-1.23 11.98-4.784 7.621 3.535 11.658 5.091 12.11 4.668.357-.334-.012-4.587-1.107-12.76 5.629-5.956 8.397-9.176 8.305-9.66-.117-.612-4.287-1.76-12.508-3.441zm.477 11.872l1.715 10.135L35 42.475V19.238l4.5 9.227 10.054 1.48-7.277 7.177z" />
  </defs>
  <g
     fill="none"
     fill-rule="evenodd"
     id="g31">
    <mask
       id="b"
       fill="#fff">
      <use
         xlink:href="#a"
         id="use14" />
    </mask>
    <g
       mask="url(#b)"
       id="g29">
      <path
         fill="url(#c)"
         d="M0 0H70V70H0z"
         id="path17" />
      <path
         fill="#FFF"
         fill-opacity=".383"
         d="M4 1h61c2.667 0 4.333.667 5 2V0H0v3c.667-1.333 2-2 4-2z"
         id="path19" />
      <path
         fill="#393939"
         d="M31.322 69H4c-2 0-4-1-4-4l.069-22.987 15.763-13.48 4.38.119L35 14.287 41 27l13.21 1.892-9.676 13.121 2.564 9.042L31.322 69z"
         opacity=".324"
         id="path21" />
      <path
         fill="#000"
         fill-opacity=".383"
         d="M4 69h61c2.667 0 4.333-1 5-3v4H0v-4c.667 2 2 3 4 3z"
         id="path23" />
    </g>
    <path
       id="path300938"
       d="m 35.000001,10.28628 c -0.01195,0.01933 -0.139495,0.03518 -0.283377,0.03518 -0.150914,0 -0.26158,0.01487 -0.26158,0.03514 0,0.01933 -0.03165,0.03514 -0.07031,0.03514 -0.03867,0 -0.07032,0.01581 -0.07032,0.03514 0,0.01933 -0.02408,0.03518 -0.05353,0.03518 -0.06628,0 -0.438688,0.367494 -0.438688,0.432887 0,0.02622 -0.01083,0.05845 -0.02408,0.07172 -0.04826,0.04817 -0.115494,0.289613 -0.116024,0.416183 0,0.07137 -0.01636,0.139574 -0.03569,0.151532 -0.01933,0.01195 -0.03518,0.11576 -0.03518,0.230635 0,0.11576 -0.01566,0.208848 -0.03514,0.208848 -0.01952,0 -0.03514,0.09378 -0.03514,0.210943 0,0.117172 -0.01566,0.210952 -0.03518,0.210952 -0.01933,0 -0.03514,0.08605 -0.03514,0.191261 0,0.105213 -0.01292,0.199347 -0.02882,0.209102 -0.0158,0.0099 -0.03253,0.100733 -0.03718,0.202164 -0.0047,0.101342 -0.01906,0.201016 -0.03216,0.221591 -0.02988,0.04684 -0.03272,0.06231 -0.03806,0.213053 -0.0042,0.119101 -0.0089,0.123056 -0.142916,0.123056 -0.0762,0 -0.148362,0.0158 -0.16032,0.03514 -0.01195,0.01933 -0.07524,0.03518 -0.140633,0.03518 -0.06539,0 -0.128675,0.0158 -0.140634,0.03514 -0.01195,0.01933 -0.07524,0.03514 -0.140629,0.03514 -0.06539,0 -0.128684,0.0158 -0.140633,0.03514 -0.01195,0.01933 -0.0683,0.03518 -0.125166,0.03518 -0.05687,0 -0.103364,0.01362 -0.103364,0.03021 0,0.01668 -0.08298,0.04006 -0.18441,0.05212 -0.101342,0.01204 -0.189675,0.03797 -0.19627,0.05765 -0.0066,0.0197 -0.05089,0.03579 -0.09862,0.03579 -0.04765,0 -0.152145,0.03165 -0.232127,0.07032 -0.08007,0.03867 -0.182127,0.07032 -0.226861,0.07032 -0.04476,0 -0.08131,0.0158 -0.08131,0.03514 0,0.01933 -0.03165,0.03514 -0.07032,0.03514 -0.03867,0 -0.07032,0.01678 -0.07032,0.03728 0,0.0205 -0.01213,0.0297 -0.02691,0.02059 -0.01487,-0.0092 -0.105832,0.02064 -0.202164,0.06618 -0.09642,0.04564 -0.202954,0.08376 -0.236793,0.08491 -0.03384,9.45e-4 -0.06153,0.01785 -0.06153,0.03718 0,0.01933 -0.03955,0.03514 -0.08789,0.03514 -0.04835,0 -0.0879,0.01581 -0.0879,0.03518 0,0.01933 -0.03165,0.03514 -0.07032,0.03514 -0.03867,0 -0.07031,0.01581 -0.07031,0.03514 0,0.01933 -0.02375,0.03518 -0.05274,0.03518 -0.029,0 -0.05274,0.0158 -0.05274,0.03514 0,0.01933 -0.01185,0.03165 -0.02635,0.02733 -0.03946,-0.01176 -0.254905,0.09124 -0.254905,0.121912 0,0.01459 -0.02222,0.02654 -0.04939,0.02654 -0.05854,0 -0.349741,0.146615 -0.366616,0.184582 -0.0065,0.0145 -0.04211,0.02635 -0.0791,0.02635 -0.03709,0 -0.06741,0.0158 -0.06741,0.03514 0,0.01933 -0.03165,0.03518 -0.07032,0.03518 -0.03867,0 -0.07032,0.01581 -0.07032,0.03514 0,0.01933 -0.02468,0.03514 -0.05485,0.03514 -0.03016,0 -0.04499,0.01581 -0.03304,0.03518 0.01195,0.01933 -0.01083,0.03514 -0.05063,0.03514 -0.03983,0 -0.07261,0.01185 -0.07287,0.02635 0,0.0145 -0.06742,0.05793 -0.149422,0.09659 -0.08191,0.03858 -0.178958,0.09731 -0.215517,0.130352 -0.07374,0.06663 -0.122972,0.05133 -0.323546,-0.100551 -0.05986,-0.04536 -0.123586,-0.08245 -0.1416,-0.08245 -0.01813,0 -0.05573,-0.03165 -0.08359,-0.07031 -0.02789,-0.03867 -0.07972,-0.07032 -0.115323,-0.07032 -0.03551,0 -0.05485,-0.0158 -0.04289,-0.03514 0.01195,-0.01933 9.45e-4,-0.03514 -0.02533,-0.03514 -0.02593,0 -0.06987,-0.03165 -0.09774,-0.07032 -0.02789,-0.03867 -0.07111,-0.07032 -0.09598,-0.07032 -0.02487,0 -0.09493,-0.04745 -0.155669,-0.105464 -0.06073,-0.05801 -0.128234,-0.105478 -0.150119,-0.105478 -0.02189,0 -0.06258,-0.03165 -0.09045,-0.07032 -0.02789,-0.03867 -0.07023,-0.07031 -0.09405,-0.07031 -0.02389,0 -0.08068,-0.0356 -0.126212,-0.07911 -0.134313,-0.128327 -0.322138,-0.271158 -0.357568,-0.27186 -0.01813,0 -0.06556,-0.03007 -0.105468,-0.0661 -0.09027,-0.08131 -0.276434,-0.145467 -0.42243,-0.145467 -0.06091,0 -0.130083,-0.01933 -0.153819,-0.04308 -0.03332,-0.03332 -0.05819,-0.03365 -0.109429,-0.0014 -0.03658,0.02277 -0.131051,0.04527 -0.210069,0.04993 -0.07901,0.0047 -0.143711,0.02119 -0.143711,0.03676 0,0.01557 -0.03165,0.02831 -0.07032,0.02831 -0.03867,0 -0.07031,0.0158 -0.07031,0.03514 0,0.01933 -0.02426,0.03514 -0.05388,0.03514 -0.0297,0 -0.10935,0.05537 -0.177029,0.12306 -0.06768,0.06768 -0.136757,0.123057 -0.153554,0.123057 -0.01678,0 -0.183526,0.1503 -0.370561,0.334003 -0.186957,0.183704 -0.347013,0.334004 -0.35563,0.334004 -0.02305,0 -0.541787,0.522889 -0.541787,0.546099 0,0.01088 -0.107416,0.125868 -0.238638,0.255422 -0.131231,0.129651 -0.288038,0.307721 -0.348597,0.395882 -0.06048,0.08816 -0.135977,0.181853 -0.16779,0.20822 -0.07797,0.0647 -0.194248,0.311156 -0.194248,0.411624 0,0.04471 -0.01585,0.0813 -0.03519,0.0813 -0.04606,0 -0.04606,0.446157 0,0.474637 0.01933,0.01195 0.03519,0.06829 0.03519,0.125157 0,0.05687 0.0158,0.103373 0.03514,0.103373 0.01933,0 0.03514,0.02338 0.03514,0.05186 0,0.02858 0.0277,0.09624 0.06153,0.150477 0.110568,0.177201 0.411178,0.588458 0.438864,0.600416 0.01487,0.0065 0.027,0.0342 0.027,0.06153 0,0.02742 0.0158,0.04983 0.03514,0.04983 0.01933,0 0.03514,0.02375 0.03514,0.05274 0,0.029 0.01241,0.05273 0.0276,0.05273 0.01511,0 0.05582,0.04791 0.09044,0.106445 0.03454,0.05854 0.101603,0.145202 0.148981,0.192581 0.04738,0.04738 0.0864,0.09835 0.08667,0.1133 0,0.01497 0.03156,0.06284 0.06953,0.106529 0.03797,0.04369 0.06899,0.09265 0.06899,0.108811 0,0.01617 0.03165,0.0581 0.07032,0.09308 0.03867,0.03499 0.07032,0.07771 0.07032,0.09493 0,0.01724 0.0376,0.06891 0.08358,0.114881 0.08034,0.08042 0.0959,0.293039 0.01785,0.244787 -0.01715,-0.01064 -0.03114,0.0099 -0.03114,0.04536 0,0.0356 -0.03165,0.08746 -0.07031,0.115323 -0.03867,0.02784 -0.07032,0.07532 -0.07032,0.105473 0,0.03016 -0.03165,0.07761 -0.07032,0.10547 -0.03867,0.02789 -0.07031,0.07884 -0.07031,0.113217 0,0.03444 -0.0158,0.06258 -0.03518,0.06258 -0.01933,0 -0.03514,0.03165 -0.03514,0.07032 0,0.03867 -0.0158,0.07031 -0.03514,0.07031 -0.01933,0 -0.03514,0.03165 -0.03514,0.07032 0,0.03867 -0.01339,0.07031 -0.02961,0.07031 -0.01636,0 -0.066,0.07516 -0.110392,0.167004 -0.187918,0.388326 -0.230379,0.465849 -0.255426,0.465849 -0.01459,0 -0.02645,0.03068 -0.02645,0.06821 0,0.03755 -0.01581,0.07805 -0.03514,0.09 -0.01933,0.01195 -0.03518,0.05248 -0.03518,0.09 0,0.03755 -0.01678,0.06821 -0.03728,0.06821 -0.0205,0 -0.02821,0.0145 -0.01724,0.03235 0.01097,0.01775 -0.0037,0.05617 -0.03305,0.08535 -0.02919,0.02919 -0.05309,0.07295 -0.05309,0.09721 0,0.03913 -0.09554,0.269406 -0.173943,0.41927 -0.01557,0.02979 -0.03955,0.120769 -0.05335,0.202154 -0.01371,0.08148 -0.03937,0.148112 -0.05704,0.148112 -0.01766,0 -0.03207,0.03858 -0.03207,0.08578 0,0.0472 -0.01585,0.09564 -0.03519,0.107584 -0.01933,0.01195 -0.03514,0.06038 -0.03514,0.107588 0,0.04719 -0.0158,0.08578 -0.03514,0.08578 -0.01933,0 -0.03514,0.04649 -0.03514,0.103363 0,0.05687 -0.0158,0.113208 -0.03514,0.125166 -0.01933,0.01195 -0.03514,0.07709 -0.03514,0.14477 0,0.07312 -0.01422,0.114263 -0.03518,0.101337 -0.02092,-0.01292 -0.03514,0.02821 -0.03514,0.101342 0,0.06768 -0.01581,0.132817 -0.03514,0.144766 -0.01933,0.01195 -0.03514,0.07621 -0.03514,0.142748 0,0.06653 -0.01585,0.120941 -0.03518,0.120941 -0.01933,0 -0.03514,0.0544 -0.03514,0.120946 0,0.06653 -0.0158,0.13079 -0.03514,0.142739 -0.01933,0.01195 -0.03518,0.07304 -0.03518,0.135711 0,0.128243 -0.05291,0.198293 -0.149766,0.198293 -0.03597,0 -0.05556,0.0158 -0.04359,0.03518 0.01352,0.02199 -0.05757,0.03514 -0.189239,0.03514 -0.116024,0 -0.220707,0.0158 -0.232666,0.03514 -0.01195,0.01933 -0.107844,0.03518 -0.213053,0.03518 -0.105214,0 -0.19126,0.0132 -0.19126,0.02937 0,0.01617 -0.09888,0.03295 -0.219741,0.03718 -0.120858,0.0042 -0.234772,0.02277 -0.25314,0.04095 -0.01836,0.01822 -0.117251,0.03314 -0.219741,0.03314 -0.10249,0 -0.186343,0.01581 -0.186343,0.03514 0,0.01952 -0.09378,0.03514 -0.210943,0.03514 -0.117168,0 -0.210953,0.01566 -0.210953,0.03518 0,0.01933 -0.0465,0.03514 -0.103368,0.03514 -0.05687,0 -0.113212,0.0158 -0.125161,0.03514 -0.01195,0.01933 -0.05335,0.03514 -0.09203,0.03514 -0.03867,0 -0.06055,0.01585 -0.0486,0.03518 0.01195,0.01933 -0.0032,0.03514 -0.03402,0.03514 -0.07129,0 -0.37031,0.297357 -0.37031,0.368196 0,0.02951 -0.01581,0.05371 -0.03514,0.05371 -0.01933,0 -0.03514,0.0303 -0.03514,0.06741 0,0.037 -0.0198,0.07392 -0.04397,0.08201 -0.05976,0.01985 -0.06425,3.55811 -0.0047,3.686255 0.02161,0.0465 0.06117,0.131761 0.0879,0.189513 0.06223,0.134211 0.329077,0.404751 0.399308,0.404751 0.02951,0 0.05371,0.0158 0.05371,0.03514 0,0.01933 0.03165,0.03518 0.07031,0.03518 0.03867,0 0.07032,0.01581 0.07032,0.03514 0,0.01933 0.04746,0.03514 0.105478,0.03514 0.05801,0 0.105474,0.01585 0.105474,0.03518 0,0.01933 0.01185,0.03332 0.02635,0.03105 0.120505,-0.01906 0.430866,0.01046 0.413107,0.03927 -0.01362,0.02208 0.06408,0.03518 0.208847,0.03518 0.130348,0 0.230635,0.01529 0.230635,0.03514 0,0.01952 0.09379,0.03514 0.210953,0.03514 0.117157,0 0.210952,0.01566 0.210952,0.03514 0,0.01933 0.08605,0.03518 0.19126,0.03518 0.105209,0 0.201104,0.01581 0.213053,0.03514 0.01195,0.01933 0.107854,0.03514 0.213067,0.03514 0.10521,0 0.191261,0.01581 0.191261,0.03518 0,0.01933 0.02849,0.03514 0.06328,0.03514 0.0908,0 0.147665,0.06961 0.147665,0.180715 0,0.053 0.01585,0.106175 0.03518,0.118124 0.01933,0.01195 0.03514,0.09291 0.03514,0.17993 0,0.09651 0.01371,0.14977 0.03514,0.136497 0.02092,-0.01292 0.03518,0.02821 0.03518,0.101341 0,0.06769 0.0158,0.132817 0.03514,0.144766 0.01933,0.01195 0.03514,0.07524 0.03514,0.140633 0,0.0654 0.0158,0.128684 0.03514,0.140638 0.01933,0.01195 0.03518,0.06829 0.03518,0.125161 0,0.05687 0.0158,0.103369 0.03514,0.103369 0.01933,0 0.03514,0.04746 0.03514,0.105469 0,0.05801 0.01585,0.105474 0.03519,0.105474 0.01933,0 0.03514,0.03955 0.03514,0.0879 0,0.04834 0.0158,0.0879 0.03514,0.0879 0.01933,0 0.03518,0.04746 0.03518,0.105474 0,0.05801 0.01441,0.105478 0.03207,0.105478 0.01766,0 0.04271,0.0632 0.05573,0.140369 0.0131,0.07717 0.06258,0.220879 0.110038,0.319233 0.04747,0.09836 0.09555,0.225105 0.106794,0.281532 0.01134,0.05642 0.03058,0.102662 0.04271,0.102662 0.01223,0 0.04331,0.05142 0.06909,0.114267 0.07163,0.174729 0.265088,0.569119 0.288819,0.5889 0.01162,0.0097 0.0435,0.069 0.07085,0.131845 0.02733,0.06284 0.06258,0.114262 0.07831,0.114262 0.01585,0 0.0197,0.0145 0.0087,0.03235 -0.01097,0.01776 0.0037,0.05617 0.03304,0.08535 0.02919,0.02919 0.05309,0.07796 0.05309,0.108291 0,0.0304 0.0158,0.05528 0.03514,0.05528 0.01933,0 0.03514,0.03165 0.03514,0.07032 0,0.03867 0.0139,0.07031 0.03086,0.07031 0.01706,0 0.05062,0.04747 0.07462,0.105478 0.02398,0.05801 0.05757,0.105475 0.07463,0.105475 0.01696,0 0.03086,0.02073 0.03086,0.04615 0,0.02533 0.0277,0.07753 0.06153,0.116024 0.136762,0.155394 0.206634,0.400363 0.114258,0.400363 -0.01933,0 -0.03514,0.02473 -0.03514,0.05485 0,0.03016 -0.01581,0.04499 -0.03514,0.03304 -0.01933,-0.01195 -0.03514,0.0074 -0.03514,0.0429 0,0.0356 -0.03165,0.08746 -0.07032,0.115317 -0.03867,0.02789 -0.07032,0.06487 -0.07032,0.08218 0,0.02961 -0.120323,0.185289 -0.282931,0.366092 -0.03913,0.0435 -0.06074,0.07911 -0.04808,0.07911 0.01264,0 -0.03421,0.06988 -0.104247,0.155306 -0.06996,0.08544 -0.127271,0.165248 -0.127271,0.17729 0,0.01204 -0.03165,0.0559 -0.07032,0.09739 -0.03867,0.04151 -0.07032,0.09625 -0.07032,0.121564 0,0.02538 -0.01264,0.04615 -0.02812,0.04615 -0.01548,0 -0.07313,0.0711 -0.128067,0.158034 -0.05494,0.08692 -0.120411,0.175087 -0.145374,0.195824 -0.02505,0.02073 -0.05564,0.08412 -0.06813,0.140815 -0.01246,0.0566 -0.03718,0.103015 -0.05502,0.103015 -0.01776,0 -0.03235,0.04746 -0.03235,0.105479 0,0.05801 -0.01585,0.105464 -0.03518,0.105464 -0.01985,0 -0.03514,0.0996 -0.03514,0.22853 0,0.128949 0.01529,0.22853 0.03514,0.22853 0.01933,0 0.03518,0.05441 0.03518,0.12095 0,0.06653 0.01408,0.129731 0.03128,0.140369 0.01715,0.01064 0.04141,0.05976 0.05379,0.109164 0.01241,0.04949 0.07894,0.148544 0.147753,0.220095 0.180101,0.187393 0.224221,0.238894 0.224221,0.26202 0,0.04304 0.843978,0.905322 0.886086,0.905322 0.01547,0 0.02802,0.01696 0.02802,0.03769 0,0.04053 0.0864,0.138091 0.122261,0.138091 0.01204,0 0.148809,0.12657 0.303947,0.281263 0.155051,0.154697 0.295945,0.281266 0.312997,0.281266 0.01696,0 0.110047,0.07911 0.206723,0.175793 0.09669,0.09669 0.200235,0.175789 0.230208,0.175789 0.02988,0 0.05441,0.01585 0.05441,0.03518 0,0.01933 0.03068,0.03514 0.0682,0.03514 0.03751,0 0.07804,0.01581 0.09,0.03514 0.01195,0.01933 0.07524,0.03518 0.140633,0.03518 0.06539,0 0.128062,0.01478 0.139137,0.03277 0.02496,0.04034 0.225634,0.03797 0.250946,-0.0028 0.01009,-0.01641 0.07287,-0.02979 0.139401,-0.02979 0.06654,0 0.120951,-0.0125 0.120951,-0.0277 0,-0.0152 0.03532,-0.03035 0.07857,-0.03355 0.04327,-0.0032 0.08412,-0.0224 0.0908,-0.04262 0.0068,-0.02022 0.03472,-0.03671 0.06205,-0.03671 0.02742,0 0.04984,-0.01585 0.04984,-0.03518 0,-0.01933 0.02375,-0.03514 0.05273,-0.03514 0.029,0 0.05274,-0.0132 0.05274,-0.02919 0,-0.01608 0.0435,-0.05169 0.09669,-0.07911 0.05317,-0.02752 0.138607,-0.09343 0.189848,-0.146606 0.05133,-0.05318 0.115057,-0.09669 0.141688,-0.09669 0.02663,0 0.07129,-0.03165 0.09915,-0.07032 0.02789,-0.03867 0.06856,-0.07031 0.09044,-0.07031 0.02189,0 0.08939,-0.04747 0.150123,-0.105474 0.06074,-0.05801 0.130795,-0.105479 0.155669,-0.105479 0.02487,0 0.06812,-0.03165 0.09598,-0.07032 0.02789,-0.03867 0.06311,-0.07031 0.07823,-0.07031 0.01511,0 0.164448,-0.09493 0.331801,-0.210953 0.326009,-0.225978 0.364771,-0.239777 0.446337,-0.158211 0.029,0.029 0.06302,0.05274 0.07568,0.05274 0.01255,0 0.106348,0.05537 0.208308,0.123052 0.10196,0.06768 0.203484,0.123055 0.225634,0.123055 0.02221,0 0.04034,0.01581 0.04034,0.03514 0,0.01933 0.03165,0.03518 0.07032,0.03518 0.03867,0 0.07032,0.01581 0.07032,0.03514 0,0.01933 0.03165,0.03514 0.07031,0.03514 0.03867,0 0.07032,0.01213 0.07032,0.02691 0,0.01478 0.05933,0.05414 0.131844,0.08746 0.07252,0.03332 0.199524,0.100287 0.282238,0.148892 0.08271,0.04861 0.173674,0.08834 0.202155,0.08834 0.02849,0 0.05177,0.01581 0.05177,0.03518 0,0.01933 0.03165,0.03514 0.07031,0.03514 0.03867,0 0.07032,0.01581 0.07032,0.03514 0,0.01933 0.03165,0.03518 0.07031,0.03518 0.03867,0 0.07032,0.01581 0.07032,0.03514 0,0.01933 0.02329,0.03514 0.05169,0.03514 0.0284,0 0.108021,0.03165 0.176843,0.07032 0.06882,0.03867 0.147931,0.07031 0.175788,0.07031 0.02789,0 0.106971,0.03165 0.175798,0.07032 0.06882,0.03867 0.155046,0.07032 0.191525,0.07032 0.03648,0 0.07154,0.01562 0.07805,0.0349 0.0064,0.01915 0.05519,0.03839 0.108369,0.04281 0.05318,0.0042 0.09669,0.01687 0.09669,0.02779 0,0.01092 0.07515,0.04044 0.167,0.06557 0.09185,0.02523 0.198645,0.05889 0.237318,0.0748 0.144407,0.05959 0.213328,0.08174 0.297966,0.0958 0.04791,0.008 0.107231,0.03118 0.13184,0.05169 0.02468,0.0204 0.0448,0.02714 0.0448,0.01487 0,-0.01232 0.05836,0.0018 0.129823,0.03179 0.07138,0.02989 0.245405,0.06399 0.386745,0.07594 0.141247,0.01195 0.256922,0.03523 0.256922,0.05177 0,0.01641 0.05537,0.02998 0.123052,0.02998 0.122173,0 0.123056,9.46e-4 0.123056,0.156097 0,0.08587 0.0158,0.165949 0.03514,0.177902 0.01933,0.01195 0.03518,0.106887 0.03518,0.210948 0,0.104075 0.01581,0.198994 0.03514,0.210953 0.01933,0.01195 0.03514,0.107844 0.03514,0.213057 0,0.105209 0.01581,0.191261 0.03514,0.191261 0.01952,0 0.03518,0.09379 0.03518,0.210952 0,0.116024 0.01441,0.210952 0.03198,0.210952 0.01766,0 0.04095,0.09097 0.05176,0.202159 0.04466,0.457846 0.06495,0.590573 0.09528,0.622303 0.01757,0.01836 0.03188,0.06205 0.03188,0.09712 0,0.131314 0.395799,0.590224 0.509007,0.590224 0.02947,0 0.05353,0.01581 0.05353,0.03514 0,0.01933 0.03165,0.03514 0.07032,0.03514 0.03867,0 0.07031,0.01348 0.07031,0.02979 0,0.01646 0.114713,0.03314 0.254906,0.03718 0.140196,0.0042 0.269926,0.02226 0.288294,0.04052 0.04569,0.04536 0.933453,0.04341 0.933453,-0.0018 0,-0.01933 0.03165,-0.03514 0.07032,-0.03514 0.03867,0 0.07031,-0.0158 0.07031,-0.03514 0,-0.01933 0.02426,-0.03518 0.05388,-0.03518 0.02956,0 0.06399,-0.0277 0.07647,-0.06152 0.0125,-0.03384 0.03183,-0.06944 0.0429,-0.07911 0.103717,-0.09053 0.108026,-0.201016 0.108026,-2.794645 0,-1.723025 -0.01204,-2.619738 -0.03518,-2.619738 -0.01933,0 -0.03514,-0.03263 -0.03514,-0.07242 0,-0.03983 -0.01581,-0.06258 -0.03514,-0.05063 -0.01933,0.01195 -0.03518,0.0028 -0.03518,-0.02012 0,-0.06091 -0.139141,-0.172009 -0.24382,-0.194685 -0.04958,-0.01083 -0.113914,-0.02919 -0.142921,-0.04104 -0.07005,-0.02839 -0.04517,-0.0263 -0.676972,-0.05784 -0.304733,-0.01529 -0.562711,-0.04183 -0.573428,-0.05916 -0.01074,-0.01734 -0.10644,-0.03146 -0.212802,-0.03146 -0.119974,0 -0.185102,-0.01339 -0.171661,-0.03514 0.01329,-0.02147 -0.04067,-0.03518 -0.138519,-0.03518 -0.08816,0 -0.16032,-0.0158 -0.16032,-0.03514 0,-0.01933 -0.06233,-0.03514 -0.138529,-0.03514 -0.0762,0 -0.148362,-0.0158 -0.160321,-0.03518 -0.01195,-0.01933 -0.0762,-0.03514 -0.142743,-0.03514 -0.06654,0 -0.120941,-0.01581 -0.120941,-0.03514 0,-0.01933 -0.06329,-0.03518 -0.140634,-0.03518 -0.07735,0 -0.140633,-0.0158 -0.140633,-0.03514 0,-0.01933 -0.04747,-0.03518 -0.105474,-0.03518 -0.05801,0 -0.105474,-0.01581 -0.105474,-0.03514 0,-0.01933 -0.03955,-0.03518 -0.0879,-0.03518 -0.04834,0 -0.0879,-0.01581 -0.0879,-0.03514 0,-0.01933 -0.04746,-0.03514 -0.105474,-0.03514 -0.05801,0 -0.105479,-0.01581 -0.105479,-0.03518 0,-0.01933 -0.03165,-0.03514 -0.07031,-0.03514 -0.03867,0 -0.07032,-0.01581 -0.07032,-0.03514 0,-0.01933 -0.03974,-0.03518 -0.08833,-0.03518 -0.07752,0 -0.211389,-0.05361 -0.263247,-0.105465 -0.0097,-0.0097 -0.05713,-0.02305 -0.105474,-0.0297 -0.04834,-0.0067 -0.09317,-0.02645 -0.09959,-0.04396 -0.0065,-0.01748 -0.04211,-0.03179 -0.07911,-0.03179 -0.03709,0 -0.06742,-0.01581 -0.06742,-0.03518 0,-0.01933 -0.03165,-0.03514 -0.07031,-0.03514 -0.03867,0 -0.07032,-0.0158 -0.07032,-0.03514 0,-0.01933 -0.03165,-0.03514 -0.07031,-0.03514 -0.03867,0 -0.07032,-0.01585 -0.07032,-0.03518 0,-0.01933 -0.0277,-0.03551 -0.06153,-0.03593 -0.03384,0 -0.101078,-0.03175 -0.149418,-0.06953 -0.04835,-0.03778 -0.106352,-0.06908 -0.12894,-0.06952 -0.02249,-9.45e-4 -0.04624,-0.01283 -0.05274,-0.02752 -0.01547,-0.03523 -0.375582,-0.219384 -0.429109,-0.219384 -0.02296,0 -0.06452,-0.03165 -0.09238,-0.07032 -0.02784,-0.03867 -0.07532,-0.07032 -0.105478,-0.07032 -0.03016,0 -0.07761,-0.03165 -0.105474,-0.07031 -0.02784,-0.03867 -0.07532,-0.07032 -0.105469,-0.07032 -0.03016,0 -0.07762,-0.03165 -0.105474,-0.07031 -0.02789,-0.03867 -0.07094,-0.07032 -0.09563,-0.07032 -0.02477,0 -0.04499,-0.0158 -0.04499,-0.03514 0,-0.01933 -0.01566,-0.03518 -0.03472,-0.03518 -0.03272,0 -0.124813,-0.0668 -0.23037,-0.166999 -0.02547,-0.02416 -0.0552,-0.04392 -0.06601,-0.04392 -0.02612,0 -0.143445,-0.09678 -0.287685,-0.237318 -0.06443,-0.06285 -0.134038,-0.114267 -0.154693,-0.114267 -0.02064,0 -0.0908,-0.05142 -0.155933,-0.114263 -0.06513,-0.06285 -0.222809,-0.214996 -0.350345,-0.338141 -0.127625,-0.123134 -0.232044,-0.237848 -0.232044,-0.254895 0,-0.01706 -0.02468,-0.03105 -0.05485,-0.03105 -0.03016,0 -0.04499,-0.0158 -0.03304,-0.03514 0.01195,-0.01933 -0.0056,-0.03514 -0.03895,-0.03514 -0.03342,0 -0.05151,-0.0092 -0.04044,-0.02031 0.01116,-0.01115 -0.07321,-0.112951 -0.187477,-0.226159 -0.114267,-0.113208 -0.207783,-0.214549 -0.207783,-0.225188 0,-0.01892 -0.114532,-0.153647 -0.272478,-0.320553 -0.0435,-0.04597 -0.07911,-0.0923 -0.07911,-0.103016 0,-0.01074 -0.04747,-0.06918 -0.105474,-0.129911 -0.05802,-0.06073 -0.105479,-0.128238 -0.105479,-0.150124 0,-0.02189 -0.03165,-0.06259 -0.07032,-0.09045 -0.03867,-0.02784 -0.07031,-0.07893 -0.07031,-0.113473 0,-0.03453 -0.03955,-0.09722 -0.0879,-0.139229 -0.04834,-0.04201 -0.0879,-0.105209 -0.0879,-0.140369 0,-0.03514 -0.01325,-0.06399 -0.02951,-0.06399 -0.01617,0 -0.04799,-0.0356 -0.0705,-0.0791 -0.02259,-0.0435 -0.08121,-0.1424 -0.130264,-0.219741 -0.04904,-0.07735 -0.09817,-0.16832 -0.109341,-0.202164 -0.01106,-0.03384 -0.03021,-0.06153 -0.04262,-0.06153 -0.01241,0 -0.04485,-0.05141 -0.07216,-0.114258 -0.02733,-0.06285 -0.05889,-0.122178 -0.07014,-0.131849 -0.04044,-0.03491 -0.10829,-0.175882 -0.10829,-0.2251 0,-0.0277 -0.01185,-0.05554 -0.02635,-0.06206 -0.03797,-0.01687 -0.184581,-0.308069 -0.184581,-0.366612 0,-0.02714 -0.0158,-0.0494 -0.03514,-0.0494 -0.01933,0 -0.03514,-0.04053 -0.03514,-0.09 0,-0.05098 -0.0152,-0.08051 -0.03518,-0.06821 -0.02059,0.01273 -0.03514,-0.02375 -0.03514,-0.0879 0,-0.06416 -0.01459,-0.10064 -0.03514,-0.08789 -0.01985,0.01232 -0.03518,-0.01654 -0.03518,-0.06618 0,-0.04835 -0.0158,-0.09765 -0.03514,-0.109611 -0.01933,-0.01195 -0.03514,-0.05247 -0.03514,-0.09 0,-0.03755 -0.0158,-0.06821 -0.03514,-0.06821 -0.01933,0 -0.03518,-0.04747 -0.03518,-0.105479 0,-0.05801 -0.01432,-0.105473 -0.03179,-0.105473 -0.01757,0 -0.04281,-0.07911 -0.05608,-0.175789 -0.01329,-0.0966 -0.03848,-0.184581 -0.05599,-0.195397 -0.01757,-0.01083 -0.03188,-0.05853 -0.03188,-0.106003 0,-0.04746 -0.0139,-0.113733 -0.03086,-0.147312 -0.05897,-0.116898 -0.109773,-0.312909 -0.109773,-0.423918 0,-0.06153 -0.01422,-0.111808 -0.03165,-0.111808 -0.03049,0 -0.05423,-0.128591 -0.0958,-0.518581 -0.01083,-0.101523 -0.03402,-0.184586 -0.0516,-0.184586 -0.01757,0 -0.03188,-0.09967 -0.03188,-0.221498 0,-0.121824 -0.01501,-0.236524 -0.03332,-0.254896 -0.01836,-0.01836 -0.03611,-0.195833 -0.03955,-0.394386 -0.0033,-0.198557 -0.02003,-0.369512 -0.0369,-0.380067 -0.04025,-0.02487 -0.04025,-1.129896 0,-1.15477 0.01687,-0.01055 0.0336,-0.181505 0.0369,-0.380062 0.0033,-0.198557 0.02119,-0.376019 0.03955,-0.394391 0.01827,-0.01836 0.03332,-0.132105 0.03332,-0.252781 0,-0.120686 0.0158,-0.229232 0.03514,-0.24119 0.01933,-0.01195 0.03514,-0.09106 0.03514,-0.175788 0,-0.08474 0.01585,-0.163835 0.03518,-0.175793 0.01933,-0.01195 0.03514,-0.09106 0.03514,-0.175789 0,-0.08474 0.01581,-0.163839 0.03514,-0.175797 0.01933,-0.01195 0.03518,-0.06751 0.03518,-0.123489 0,-0.0559 0.01413,-0.138081 0.03147,-0.182475 0.01733,-0.04448 0.05089,-0.15197 0.07453,-0.238983 0.02375,-0.08702 0.06487,-0.2179 0.09159,-0.290762 0.02672,-0.07295 0.04853,-0.171838 0.04853,-0.219741 0,-0.04799 0.0158,-0.0872 0.03514,-0.0872 0.01933,0 0.03514,-0.03183 0.03514,-0.07075 0,-0.03895 0.01399,-0.09827 0.03105,-0.131849 0.01715,-0.03356 0.05063,-0.108546 0.07445,-0.166563 0.02384,-0.05801 0.0573,-0.132983 0.07445,-0.166562 0.01706,-0.03356 0.03105,-0.08499 0.03105,-0.114263 0,-0.02928 0.01581,-0.05318 0.03514,-0.05318 0.01933,0 0.03519,-0.03955 0.03519,-0.08789 0,-0.04834 0.0158,-0.0879 0.03514,-0.0879 0.01933,0 0.03514,-0.03165 0.03514,-0.07032 0,-0.03867 0.0158,-0.07031 0.03518,-0.07031 0.01933,0 0.03514,-0.03165 0.03514,-0.07032 0,-0.03867 0.0158,-0.07031 0.03514,-0.07031 0.01933,0 0.03514,-0.03165 0.03514,-0.07032 0,-0.03867 0.01585,-0.07032 0.03518,-0.07032 0.01933,0 0.03514,-0.03165 0.03514,-0.07031 0,-0.03867 0.01283,-0.07032 0.02858,-0.07032 0.01571,0 0.05036,-0.05537 0.0769,-0.123052 0.02654,-0.06768 0.06118,-0.123055 0.07691,-0.123055 0.01576,0 0.02858,-0.03165 0.02858,-0.07031 0,-0.03867 0.01283,-0.07032 0.02858,-0.07032 0.01576,0 0.0501,-0.05468 0.07629,-0.121471 0.02621,-0.06681 0.06082,-0.113296 0.07691,-0.103369 0.01599,0.0099 0.02919,-0.0145 0.02919,-0.05432 0,-0.03983 0.0158,-0.07242 0.03514,-0.07242 0.01933,0 0.03514,-0.02375 0.03514,-0.05273 0,-0.029 0.0158,-0.05274 0.03518,-0.05274 0.01933,0 0.03514,-0.02375 0.03514,-0.05273 0,-0.029 0.0158,-0.05274 0.03514,-0.05274 0.01933,0 0.03514,-0.03076 0.03514,-0.06829 0,-0.03765 0.03156,-0.09045 0.07005,-0.117432 0.03858,-0.027 0.05969,-0.05959 0.04694,-0.07234 -0.01273,-0.01273 -0.0048,-0.02319 0.01776,-0.02319 0.02259,0 0.04104,-0.02584 0.04104,-0.05739 0,-0.03156 0.02779,-0.08297 0.06179,-0.114268 0.03392,-0.03128 0.08377,-0.09985 0.110749,-0.152322 0.027,-0.05256 0.0624,-0.08719 0.07884,-0.07708 0.01645,0.01018 0.02988,-0.0062 0.02988,-0.0363 0,-0.03016 0.0158,-0.05485 0.03518,-0.05485 0.01933,0 0.03514,-0.01627 0.03514,-0.03621 0,-0.01994 0.07911,-0.117436 0.175789,-0.216664 0.09669,-0.09933 0.175797,-0.194072 0.175797,-0.210775 0,-0.01659 0.1147,-0.146964 0.254896,-0.289619 0.140192,-0.142651 0.330049,-0.339368 0.4219,-0.437191 0.09185,-0.09774 0.167,-0.169468 0.167,-0.159271 0,0.01013 0.07805,-0.06179 0.173511,-0.159703 0.09545,-0.098 0.190377,-0.178172 0.210943,-0.178172 0.02059,0 0.03746,-0.0158 0.03746,-0.03514 0,-0.01933 0.0158,-0.03514 0.03514,-0.03514 0.01924,0 0.100287,-0.06329 0.180013,-0.140633 0.07972,-0.07735 0.160934,-0.140638 0.18045,-0.140638 0.01962,0 0.06118,-0.02789 0.09246,-0.06179 0.03128,-0.03402 0.151797,-0.1329 0.267821,-0.219741 0.116024,-0.08693 0.216223,-0.169812 0.222637,-0.184312 0.0065,-0.0145 0.03858,-0.02635 0.07138,-0.02635 0.03277,0 0.08244,-0.03165 0.110303,-0.07031 0.02789,-0.03867 0.0777,-0.07032 0.110749,-0.07032 0.03295,0 0.082,-0.02198 0.108816,-0.04878 0.02682,-0.02691 0.118919,-0.08412 0.204715,-0.127359 0.08569,-0.04313 0.191344,-0.09633 0.234678,-0.118218 0.04332,-0.0218 0.07893,-0.05151 0.07911,-0.06601 0,-0.0145 0.03188,-0.02635 0.07057,-0.02635 0.03867,0 0.07032,-0.01283 0.07032,-0.02858 0,-0.01571 0.05538,-0.05036 0.123056,-0.0769 0.06768,-0.02654 0.123051,-0.06118 0.123051,-0.07691 0,-0.01576 0.03165,-0.02858 0.07032,-0.02858 0.03867,0 0.07031,-0.01581 0.07031,-0.03518 0,-0.01933 0.03165,-0.03514 0.07032,-0.03514 0.03867,0 0.07031,-0.0158 0.07031,-0.03514 0,-0.01933 0.03858,-0.03514 0.08578,-0.03514 0.04721,0 0.09563,-0.01581 0.107588,-0.03514 0.01195,-0.01933 0.05247,-0.03518 0.09,-0.03518 0.03755,0 0.06821,-0.01581 0.06821,-0.03514 0,-0.01933 0.03165,-0.03514 0.07032,-0.03514 0.03867,0 0.07031,-0.0158 0.07031,-0.03519 0,-0.01933 0.04843,-0.03514 0.107588,-0.03514 0.06267,0 0.09844,-0.01469 0.08578,-0.03514 -0.01232,-0.01994 0.01724,-0.03518 0.06821,-0.03518 0.04948,0 0.09,-0.0158 0.09,-0.03514 0,-0.01933 0.03858,-0.03514 0.0858,-0.03514 0.0472,0 0.09563,-0.01581 0.107579,-0.03514 0.01195,-0.01933 0.0683,-0.03518 0.125166,-0.03518 0.05687,0 0.103364,-0.0158 0.103364,-0.03514 0,-0.01933 0.03955,-0.03514 0.0879,-0.03514 0.04835,0 0.0879,-0.01581 0.0879,-0.03518 0,-0.01933 0.06328,-0.03514 0.140633,-0.03514 0.07734,0 0.140633,-0.0158 0.140633,-0.03514 0,-0.01933 0.0522,-0.03518 0.11602,-0.03518 0.06381,0 0.13105,-0.01422 0.149422,-0.03175 0.01836,-0.01743 0.122526,-0.04169 0.231518,-0.05397 0.108992,-0.01222 0.235562,-0.03175 0.281271,-0.04331 0.04568,-0.01162 0.162255,-0.02863 0.25894,-0.03778 0.09669,-0.0092 0.183875,-0.02951 0.193812,-0.04536 0.0099,-0.01576 0.124627,-0.03342 0.254896,-0.03927 0.130255,-0.0058 0.236882,-0.02092 0.236882,-0.03356 0,-0.01264 0.169458,-0.02565 0.376539,-0.029 0.20708,-0.0033 0.392987,-0.01882 0.413111,-0.03444 0.02012,-0.01571 0.08025,-0.03904 0.133694,-0.05176 0.106613,-0.02547 0.307192,-0.215168 0.307192,-0.290497 0,-0.02621 0.0158,-0.04756 0.03514,-0.04756 0.0231,0 0.03518,-0.896709 0.03518,-2.619735 0,-2.593628 -0.0042,-2.704112 -0.108025,-2.794653 -0.01106,-0.0097 -0.0304,-0.04527 -0.0429,-0.0791 -0.01245,-0.03384 -0.04693,-0.06153 -0.07647,-0.06153 -0.02961,0 -0.05388,-0.01581 -0.05388,-0.03514 0,-0.01933 -0.03165,-0.03514 -0.07031,-0.03514 -0.03867,0 -0.07032,-0.01581 -0.07032,-0.03518 0,-0.02161 -0.175082,-0.03514 -0.454945,-0.03514 -0.265451,0 -0.464092,0.01469 -0.476748,0.03514"
       stroke="none"
       fill="#3c94d4"
       fill-rule="evenodd"
       style="fill:#ffffff;fill-opacity:1;stroke-width:0.0878956" />
    <path
       id="path300940"
       d="m 41.055142,14.421261 c -0.01408,0.01399 -0.02547,0.836332 -0.02547,1.827435 0,1.775413 -9.45e-4,1.804684 -0.07664,1.97476 -0.153289,0.345256 0.01232,0.323807 -2.508367,0.325564 -1.228873,9.46e-4 -2.227017,0.01547 -2.26015,0.03314 -0.03272,0.01734 -0.08975,0.04113 -0.126844,0.05283 -0.05976,0.01887 -0.05124,0.03681 0.07577,0.158907 0.171926,0.165159 0.220187,0.342969 0.220187,0.811105 v 0.314669 h 2.142546 c 1.390513,0 2.150284,-0.01232 2.164343,-0.03518 0.01195,-0.01933 0.09994,-0.03514 0.19548,-0.03514 0.09555,0 0.173683,-0.0158 0.173683,-0.03514 0,-0.01933 0.02849,-0.03514 0.06329,-0.03514 0.07857,0 0.252522,-0.07858 0.252875,-0.114263 0,-0.0145 0.03193,-0.02635 0.07057,-0.02635 0.07146,0 0.12227,-0.03648 0.325572,-0.23354 0.156105,-0.151444 0.236965,-0.252521 0.236965,-0.296293 0,-0.02031 0.01581,-0.02705 0.03514,-0.01511 0.01933,0.01195 0.03518,-0.01083 0.03518,-0.05063 0,-0.03983 0.0158,-0.07242 0.03514,-0.07242 0.01933,0 0.03514,-0.03165 0.03514,-0.07032 0,-0.03867 0.01585,-0.07031 0.03518,-0.07031 0.01933,0 0.03514,-0.03068 0.03514,-0.0682 0,-0.03755 0.01581,-0.07805 0.03514,-0.09001 0.01933,-0.01195 0.03518,-0.0762 0.03518,-0.142744 0,-0.06654 0.01547,-0.120941 0.03425,-0.120941 0.02208,0 0.03146,-0.715562 0.0264,-1.995238 -0.0079,-1.97167 -0.0087,-1.995141 -0.07823,-1.988373 -0.03867,0.0037 -0.184048,0.02161 -0.323012,0.03965 -0.235032,0.03049 -0.602002,0.009 -0.76777,-0.04499 -0.03923,-0.01273 -0.08271,-0.01171 -0.09669,0.0023 m 5.925053,5.977181 c -0.0343,0.01501 -0.04396,0.37593 -0.04396,1.633632 0,1.05281 -0.01222,1.614382 -0.03514,1.614382 -0.01933,0 -0.03514,0.02523 -0.03514,0.05599 0,0.03086 -0.03147,0.06434 -0.06997,0.07436 -0.03843,0.01004 -0.06118,0.03225 -0.05063,0.04939 0.01064,0.01715 -0.0053,0.03118 -0.03551,0.03118 -0.03016,0 -0.05485,0.01585 -0.05485,0.03518 0,0.02328 -1.740338,0.03514 -5.150694,0.03514 H 36.35361 v 0.68612 0.686198 l 5.149285,-0.0018 c 3.277894,-9.45e-4 5.157015,-0.01408 5.170377,-0.03569 0.01162,-0.01873 0.07568,-0.03402 0.142478,-0.03402 0.06681,0 0.148897,-0.01339 0.182477,-0.02961 0.29137,-0.14134 0.381647,-0.181505 0.407395,-0.181417 0.01636,8.4e-5 0.0741,-0.04738 0.128326,-0.10539 0.05423,-0.05801 0.107853,-0.105479 0.119189,-0.105479 0.03491,0 0.162082,-0.119184 0.162082,-0.15188 0,-0.01696 0.04746,-0.07515 0.105474,-0.129381 0.05801,-0.05423 0.10547,-0.123847 0.10547,-0.154693 0,-0.03095 0.01585,-0.05626 0.03518,-0.05626 0.01933,0 0.03514,-0.03165 0.03514,-0.07031 0,-0.03867 0.01581,-0.07032 0.03514,-0.07032 0.01933,0 0.03518,-0.04746 0.03518,-0.105474 0,-0.05801 0.01581,-0.105474 0.03514,-0.105474 0.01933,0 0.03514,-0.07023 0.03514,-0.156101 0,-0.08587 0.01581,-0.165949 0.03518,-0.177898 0.02259,-0.01399 0.03514,-0.599538 0.03514,-1.641547 v -1.619745 l -0.167009,0.02789 c -0.206114,0.03435 -0.826566,0.03876 -0.993217,0.007 -0.06768,-0.01283 -0.142827,-0.01469 -0.166999,-0.0042 M 36.35358,21.624292 v 0.650778 h 3.658224 c 3.933418,0 3.757713,0.0079 3.911969,-0.176234 0.174384,-0.208047 0.290236,-0.702721 0.164629,-0.702721 -0.01933,0 -0.03514,-0.02064 -0.03514,-0.04587 0,-0.07867 -0.233456,-0.3057 -0.314493,-0.3057 -0.04201,0 -0.0668,-0.01557 -0.05503,-0.03453 0.0139,-0.02249 -1.258222,-0.03481 -3.654442,-0.03541 l -3.675709,-9.46e-4 v 0.65069 m 0,5.977261 v 0.650451 h 7.158394 7.158407 l -0.02524,-0.149426 c -0.03305,-0.196006 -0.03323,-0.851795 0,-1.019585 l 0.02593,-0.131844 h -7.158554 -7.158579 v 0.650425 m 0,2.970874 v 0.668012 h 5.134349 c 5.512997,0 5.307673,-0.0064 5.307673,0.164365 0,0.02789 0.0158,0.04094 0.03514,0.029 0.01933,-0.01195 0.03514,0.0028 0.03514,0.03305 0,0.03016 0.0158,0.05485 0.03518,0.05485 0.02296,0 0.03514,0.561744 0.03514,1.614916 0,1.83588 -0.02329,1.709831 0.299104,1.619564 0.147052,-0.04113 0.579846,-0.03175 0.923261,0.02012 l 0.150124,0.02259 -0.0018,-1.637322 c -0.0014,-1.008513 -0.01492,-1.645409 -0.03579,-1.658241 -0.01864,-0.01153 -0.03384,-0.07445 -0.03384,-0.139844 0,-0.06539 -0.01581,-0.12868 -0.03514,-0.140629 -0.01933,-0.01195 -0.03518,-0.05942 -0.03518,-0.105478 0,-0.04606 -0.01581,-0.09352 -0.03514,-0.105474 -0.01933,-0.01195 -0.03514,-0.05247 -0.03514,-0.09 0,-0.03755 -0.01585,-0.06821 -0.03518,-0.06821 -0.01933,0 -0.03514,-0.02389 -0.03514,-0.05309 0,-0.02919 -0.04746,-0.102662 -0.105473,-0.163402 -0.05801,-0.06074 -0.105478,-0.126477 -0.105478,-0.146169 0,-0.0197 -0.0097,-0.02612 -0.02147,-0.01432 -0.01185,0.01185 -0.06038,-0.02468 -0.107844,-0.08113 -0.04746,-0.05634 -0.148544,-0.137552 -0.224658,-0.180278 -0.07603,-0.04271 -0.138263,-0.09325 -0.138263,-0.112241 0,-0.01896 -0.01036,-0.02417 -0.0231,-0.01143 -0.01273,0.01273 -0.04597,0.0042 -0.07392,-0.01901 -0.05994,-0.04984 -0.106092,-0.06126 -0.351846,-0.08719 -0.101867,-0.01074 -0.193812,-0.03342 -0.204274,-0.05028 -0.01073,-0.01733 -2.265072,-0.03076 -5.167657,-0.03076 h -5.148579 v 0.668003 m 0,2.971497 v 0.651043 l 3.682829,-0.0094 c 3.822771,-0.0098 3.876205,-0.01176 3.876205,-0.147935 0,-0.02161 0.03165,-0.06214 0.07032,-0.09 0.03867,-0.02784 0.07031,-0.07884 0.07031,-0.113208 0,-0.03444 0.01581,-0.06259 0.03518,-0.06259 0.01985,0 0.03514,-0.09958 0.03514,-0.228521 0,-0.128945 -0.01529,-0.22853 -0.03514,-0.22853 -0.01933,0 -0.03518,-0.0198 -0.03518,-0.04396 0,-0.07199 -0.148367,-0.222544 -0.298314,-0.302883 l -0.140141,-0.07507 h -3.630618 -3.630622 v 0.651044 m 0,2.04059 c 0,0.446951 -0.04782,0.622563 -0.216047,0.794317 -0.07453,0.07602 -0.135539,0.14371 -0.135539,0.150384 0,0.05212 0.512961,0.06882 2.441748,0.07937 1.217267,0.0067 2.221918,0.02379 2.232552,0.03806 0.01064,0.01422 0.06047,0.04703 0.11066,0.07287 0.08289,0.04262 0.202689,0.260167 0.181152,0.329078 -0.0049,0.01547 0.0068,0.02812 0.02603,0.02812 0.02249,0 0.03816,0.652893 0.04396,1.837027 l 0.0092,1.837023 0.0879,-0.01292 c 0.116372,-0.01715 0.938017,-0.01752 1.07233,0 l 0.105474,0.01334 0.0079,-1.98486 c 0.0048,-1.194149 -0.0051,-1.992947 -0.02468,-2.00517 -0.01803,-0.01106 -0.03667,-0.07902 -0.04151,-0.150914 -0.0049,-0.0719 -0.02147,-0.130785 -0.03681,-0.130785 -0.01539,0 -0.02793,-0.03165 -0.02793,-0.07032 0,-0.03867 -0.01585,-0.07032 -0.03518,-0.07032 -0.01933,0 -0.03514,-0.03165 -0.03514,-0.07031 0,-0.03867 -0.0158,-0.07032 -0.03514,-0.07032 -0.01933,0 -0.03518,-0.0198 -0.03518,-0.04397 0,-0.07937 -0.331099,-0.445283 -0.466634,-0.515773 -0.05274,-0.02742 -0.09589,-0.06302 -0.09589,-0.0791 0,-0.01599 -0.02375,-0.02919 -0.05274,-0.02919 -0.029,0 -0.05273,-0.0158 -0.05273,-0.03518 0,-0.01933 -0.04053,-0.03514 -0.09001,-0.03514 -0.05098,0 -0.08051,-0.0152 -0.0682,-0.03514 0.01232,-0.01985 -0.01654,-0.03518 -0.06619,-0.03518 -0.04835,0 -0.09765,-0.0158 -0.109602,-0.03514 -0.01195,-0.01933 -0.106882,-0.03514 -0.210952,-0.03514 -0.104066,0 -0.198994,-0.0158 -0.210952,-0.03514 -0.01408,-0.02287 -0.767941,-0.03519 -2.146761,-0.03519 H 36.35423 v 0.336026"
       stroke="none"
       fill="#bbc4c4"
       fill-rule="evenodd"
       style="fill:#ffffff;stroke-width:0.0878956" />
    <path
       id="path300942"
       d="m 35.105475,18.653969 c -0.01195,0.01933 -0.11576,0.03514 -0.23064,0.03514 -0.115759,0 -0.208842,0.01566 -0.208842,0.03518 0,0.01933 -0.0791,0.03514 -0.175784,0.03514 -0.09669,0 -0.175798,0.0158 -0.175798,0.03514 0,0.01933 -0.06328,0.03519 -0.140633,0.03519 -0.07735,0 -0.140629,0.0158 -0.140629,0.03514 0,0.01933 -0.06329,0.03514 -0.140634,0.03514 -0.07735,0 -0.140637,0.0158 -0.140637,0.03514 0,0.01933 -0.04746,0.03519 -0.10547,0.03519 -0.05801,0 -0.105473,0.0158 -0.105473,0.03514 0,0.01933 -0.04747,0.03514 -0.105479,0.03514 -0.05801,0 -0.105474,0.01581 -0.105474,0.03518 0,0.01933 -0.03857,0.03514 -0.08579,0.03514 -0.04721,0 -0.09563,0.0158 -0.107589,0.03514 -0.01195,0.01933 -0.06038,0.03518 -0.107579,0.03518 -0.04721,0 -0.08579,0.0158 -0.08579,0.03514 0,0.01933 -0.03165,0.03514 -0.07032,0.03514 -0.03867,0 -0.07032,0.0158 -0.07032,0.03514 0,0.01933 -0.03165,0.03518 -0.07031,0.03518 -0.03867,0 -0.07032,0.01581 -0.07032,0.03514 0,0.01933 -0.03858,0.03514 -0.08579,0.03514 -0.0472,0 -0.09563,0.01581 -0.107579,0.03518 -0.01195,0.01933 -0.05248,0.03514 -0.09001,0.03514 -0.03755,0 -0.0682,0.0158 -0.0682,0.03514 0,0.01933 -0.03165,0.03519 -0.07031,0.03519 -0.03867,0 -0.07032,0.0158 -0.07032,0.03514 0,0.01933 -0.0303,0.03514 -0.06742,0.03514 -0.037,0 -0.0726,0.01185 -0.07911,0.02635 -0.0065,0.0145 -0.07498,0.05766 -0.152318,0.09598 -0.165331,0.08183 -0.346669,0.200672 -0.363279,0.238021 -0.0065,0.0145 -0.03858,0.02635 -0.07137,0.02635 -0.03277,0 -0.08245,0.03165 -0.110312,0.07032 -0.02784,0.03867 -0.07533,0.07032 -0.105474,0.07032 -0.03016,0 -0.07762,0.03165 -0.105473,0.07031 -0.02789,0.03867 -0.07146,0.07032 -0.09686,0.07032 -0.02533,0 -0.101523,0.05538 -0.169202,0.123056 -0.06768,0.06768 -0.13791,0.123051 -0.156096,0.123051 -0.01822,0 -0.104247,0.0712 -0.191261,0.158211 -0.08702,0.08701 -0.166571,0.15822 -0.176852,0.15822 -0.02909,0 -0.756694,0.720824 -0.756694,0.749658 0,0.01417 -0.07119,0.09686 -0.158211,0.183875 -0.08702,0.08702 -0.158215,0.171661 -0.158215,0.188011 0,0.01645 -0.05538,0.09027 -0.123056,0.164193 -0.06768,0.07392 -0.123052,0.147754 -0.123052,0.164183 0,0.01646 -0.0383,0.06821 -0.08517,0.115057 -0.04685,0.04685 -0.09536,0.117344 -0.107849,0.156636 -0.0125,0.03927 -0.03611,0.07146 -0.05266,0.07146 -0.01654,0 -0.04044,0.04746 -0.05317,0.105478 -0.01273,0.058 -0.03769,0.105465 -0.05556,0.105465 -0.01776,0 -0.03235,0.02375 -0.03235,0.05274 0,0.029 -0.0158,0.05274 -0.03514,0.05274 -0.01933,0 -0.03518,0.02375 -0.03518,0.05274 0,0.029 -0.0158,0.05273 -0.03514,0.05273 -0.01933,0 -0.03514,0.02375 -0.03514,0.05274 0,0.029 -0.01581,0.05273 -0.03514,0.05273 -0.01933,0 -0.03518,0.03165 -0.03518,0.07032 0,0.03867 -0.0158,0.07031 -0.03514,0.07031 -0.01933,0 -0.03514,0.03165 -0.03514,0.07032 0,0.03867 -0.01585,0.07031 -0.03518,0.07031 -0.01933,0 -0.03514,0.03165 -0.03514,0.07032 0,0.03867 -0.0158,0.07032 -0.03514,0.07032 -0.01933,0 -0.03518,0.03165 -0.03518,0.07032 0,0.03867 -0.0158,0.07032 -0.03514,0.07032 -0.01933,0 -0.03514,0.03165 -0.03514,0.07031 0,0.03867 -0.0158,0.07032 -0.03514,0.07032 -0.01933,0 -0.03542,0.05142 -0.03569,0.114267 -9.45e-4,0.08667 -0.0088,0.101524 -0.03462,0.06153 -0.02663,-0.04122 -0.03421,-0.03216 -0.03462,0.04183 0,0.05204 -0.01636,0.104419 -0.03569,0.116377 -0.01933,0.01195 -0.03514,0.05247 -0.03514,0.09 0,0.03751 -0.0158,0.0682 -0.03514,0.0682 -0.01933,0 -0.03518,0.03955 -0.03518,0.0879 0,0.04834 -0.0158,0.0879 -0.03514,0.0879 -0.01933,0 -0.03514,0.04746 -0.03514,0.105475 0,0.05801 -0.0158,0.105478 -0.03514,0.105478 -0.01933,0 -0.03518,0.04746 -0.03518,0.105465 0,0.05801 -0.0158,0.105478 -0.03514,0.105478 -0.01933,0 -0.03514,0.06329 -0.03514,0.140633 0,0.07735 -0.0158,0.140639 -0.03518,0.140639 -0.01933,0 -0.03514,0.06328 -0.03514,0.140633 0,0.07735 -0.01413,0.140629 -0.03146,0.140629 -0.0304,0 -0.05599,0.124018 -0.09457,0.457059 -0.01004,0.08701 -0.03272,0.189857 -0.05028,0.22853 -0.105209,0.230635 -0.105209,2.546869 0,2.777504 0.01757,0.03867 0.03965,0.141512 0.04887,0.22853 0.0093,0.08702 0.03472,0.237318 0.05652,0.334003 0.0218,0.09669 0.04843,0.22721 0.05916,0.290061 0.01074,0.06284 0.03355,0.114262 0.05081,0.114262 0.01724,0 0.03128,0.06328 0.03128,0.140634 0,0.07734 0.0158,0.140633 0.03514,0.140633 0.01933,0 0.03514,0.04746 0.03514,0.105474 0,0.05801 0.0158,0.105479 0.03518,0.105479 0.01933,0 0.03514,0.04745 0.03514,0.105473 0,0.05801 0.01292,0.105474 0.02882,0.105474 0.0158,0 0.05028,0.0791 0.07665,0.175789 0.02635,0.09669 0.06082,0.175797 0.07664,0.175797 0.01589,0 0.02881,0.03955 0.02881,0.08789 0,0.04835 0.0158,0.0879 0.03514,0.0879 0.01933,0 0.03514,0.03165 0.03514,0.07032 0,0.03867 0.0158,0.07031 0.03518,0.07031 0.01933,0 0.03514,0.03165 0.03514,0.07032 0,0.03867 0.01581,0.07031 0.03514,0.07031 0.01933,0 0.03514,0.03165 0.03514,0.07032 0,0.03867 0.01581,0.07032 0.03518,0.07032 0.01933,0 0.03514,0.03165 0.03514,0.07032 0,0.03867 0.01581,0.07032 0.03514,0.07032 0.01933,0 0.03518,0.03165 0.03518,0.07031 0,0.03867 0.0158,0.07032 0.03514,0.07032 0.01933,0 0.03514,0.03165 0.03514,0.07032 0,0.03867 0.0158,0.07031 0.03519,0.07031 0.01933,0 0.03514,0.02073 0.03514,0.04615 0,0.02533 0.02821,0.07673 0.06267,0.114263 0.03444,0.03746 0.09238,0.131408 0.128675,0.208749 0.07586,0.161469 0.178345,0.312648 0.292082,0.430782 0.0435,0.04527 0.07911,0.09563 0.07911,0.11206 0,0.01646 0.04746,0.0806 0.105469,0.142748 0.05801,0.06214 0.105474,0.126658 0.105474,0.143445 0,0.01678 0.07119,0.101696 0.158215,0.188709 0.08702,0.08702 0.158211,0.166391 0.158211,0.176323 0,0.03114 0.116908,0.165335 0.274151,0.314753 0.364233,0.346138 0.470329,0.44247 0.487033,0.44247 0.0098,0 0.07857,0.06328 0.152936,0.140629 0.07435,0.07735 0.152145,0.140634 0.173064,0.140634 0.02082,0 0.03788,0.0158 0.03788,0.03518 0,0.01933 0.01599,0.03514 0.03551,0.03514 0.01952,0 0.08508,0.04746 0.14582,0.105478 0.06074,0.05801 0.131761,0.105475 0.157862,0.105475 0.02622,0 0.04755,0.0132 0.04755,0.02919 0,0.01608 0.0435,0.05167 0.09669,0.0791 0.05317,0.02751 0.12736,0.07762 0.164801,0.111451 0.03755,0.03384 0.08165,0.06153 0.09818,0.06153 0.01654,0 0.0617,0.02951 0.100376,0.06557 0.03876,0.03611 0.144848,0.103281 0.235905,0.149246 0.09098,0.04597 0.183885,0.100994 0.206384,0.12227 0.02249,0.02129 0.0937,0.05827 0.158216,0.08227 0.06451,0.02398 0.144765,0.0581 0.17834,0.07577 0.03355,0.01776 0.08499,0.03225 0.114262,0.03225 0.02928,0 0.05318,0.01585 0.05318,0.03518 0,0.01933 0.03955,0.03514 0.0879,0.03514 0.04833,0 0.08789,0.0158 0.08789,0.03514 0,0.01933 0.03165,0.03518 0.07032,0.03518 0.03867,0 0.07031,0.0158 0.07031,0.03514 0,0.01933 0.03068,0.03514 0.0682,0.03514 0.03755,0 0.07805,0.0158 0.09001,0.03518 0.01195,0.01933 0.06039,0.03514 0.107579,0.03514 0.04721,0 0.08579,0.01581 0.08579,0.03514 0,0.01933 0.03858,0.03514 0.0858,0.03514 0.0472,0 0.09563,0.01585 0.10758,0.03518 0.01195,0.01933 0.06038,0.03514 0.107588,0.03514 0.0472,0 0.08579,0.0158 0.08579,0.03514 0,0.01933 0.04746,0.03518 0.105473,0.03518 0.05801,0 0.10547,0.01581 0.10547,0.03514 0,0.01933 0.06329,0.03514 0.140638,0.03514 0.07734,0 0.140633,0.01581 0.140633,0.03518 0,0.01933 0.06328,0.03514 0.140629,0.03514 0.07735,0 0.140633,0.01581 0.140633,0.03514 0,0.01933 0.07911,0.03514 0.175798,0.03514 0.09668,0 0.175784,0.01585 0.175784,0.03518 0,0.01952 0.09308,0.03514 0.208842,0.03514 0.11488,0 0.218681,0.01581 0.23064,0.03514 0.029,0.04703 0.896541,0.04711 0.896541,8.4e-5 0,-0.01924 0.05916,-0.100552 0.131487,-0.180534 l 0.131396,-0.145522 0.01097,-0.390793 c 0.006,-0.214903 0.02682,-0.422858 0.04615,-0.462149 0.02138,-0.04341 0.02789,-0.28426 0.01664,-0.61527 -0.01023,-0.299114 -0.02789,-0.811021 -0.03937,-1.137375 -0.01404,-0.401065 -0.0087,-0.605687 0.01669,-0.631086 0.05124,-0.05125 0.05186,-1.753175 9.45e-4,-1.804332 -0.02445,-0.02445 -0.02998,-0.23116 -0.01636,-0.613508 0.01125,-0.317129 0.02031,-0.976087 0.02003,-1.464342 -9.45e-4,-1.120587 -9.45e-4,-1.850296 0,-2.970883 0,-0.488264 -0.0088,-1.147213 -0.02003,-1.464341 -0.01362,-0.382349 -0.0081,-0.589077 0.01636,-0.613509 0.05116,-0.05116 0.05054,-1.753082 -9.45e-4,-1.804332 -0.02542,-0.02542 -0.03077,-0.230021 -0.01669,-0.631086 0.01153,-0.326359 0.02919,-0.83826 0.03937,-1.137374 0.01143,-0.335054 0.0049,-0.571318 -0.01706,-0.61527 -0.01952,-0.03927 -0.04006,-0.240307 -0.04573,-0.446859 -0.009,-0.330225 -0.01985,-0.387447 -0.09062,-0.474636 -0.0442,-0.0545 -0.107491,-0.142572 -0.140634,-0.195569 l -0.06021,-0.09651 h -0.428579 c -0.248129,0 -0.437809,0.0145 -0.450376,0.03491"
       stroke="none"
       fill="#2c5484"
       fill-rule="evenodd"
       style="fill:#ffffff;fill-opacity:1;stroke-width:0.0878956" />
    <path
       id="path300944"
       d="m 41.012072,10.945768 c -0.09669,0.03156 -0.183703,0.06794 -0.193375,0.08078 -0.0097,0.01292 -0.07146,0.05098 -0.137291,0.08473 -0.141684,0.07269 -0.492038,0.418206 -0.563059,0.555241 -0.02742,0.05309 -0.06302,0.09642 -0.0791,0.09642 -0.01599,0 -0.02919,0.03165 -0.02919,0.07032 0,0.03867 -0.01581,0.07032 -0.03518,0.07032 -0.01933,0 -0.03514,0.04746 -0.03514,0.105475 0,0.05801 -0.0158,0.105478 -0.03514,0.105478 -0.01933,0 -0.03518,0.07023 -0.03518,0.156105 0,0.08586 -0.01581,0.16594 -0.03514,0.177899 -0.01933,0.01195 -0.03514,0.122698 -0.03514,0.246107 0,0.1234 0.01581,0.234149 0.03514,0.246107 0.01933,0.01195 0.03514,0.08315 0.03514,0.158211 0,0.07506 0.01581,0.146257 0.03518,0.158211 0.01933,0.01195 0.03514,0.04932 0.03514,0.08298 0,0.07691 0.07902,0.250415 0.114267,0.250759 0.0145,0 0.02635,0.02208 0.02635,0.04879 0,0.05923 0.50083,0.584327 0.557342,0.584327 0.02217,0 0.04034,0.01264 0.04034,0.02812 0,0.05695 0.321529,0.187217 0.367671,0.148892 0.03007,-0.02496 0.102751,-0.02542 0.229673,-0.0014 0.246456,0.04675 0.574924,0.04457 0.824021,-0.0054 0.167877,-0.03365 0.2084,-0.03216 0.237053,0.0088 0.02654,0.03797 0.03867,0.03927 0.05238,0.0056 0.0098,-0.02416 0.04817,-0.04392 0.08518,-0.04392 0.03709,0 0.06741,-0.0158 0.06741,-0.03514 0,-0.01933 0.02073,-0.03518 0.04615,-0.03518 0.02533,0 0.08007,-0.03165 0.121564,-0.07032 0.0415,-0.03867 0.08692,-0.07032 0.100984,-0.07032 0.04536,0 0.356248,-0.34157 0.380499,-0.418038 0.01292,-0.04081 0.03834,-0.07419 0.05634,-0.07419 0.01803,0 0.03277,-0.03165 0.03277,-0.07032 0,-0.03867 0.01581,-0.07031 0.03518,-0.07031 0.01933,0 0.03514,-0.03165 0.03514,-0.07032 0,-0.03867 0.0158,-0.07032 0.03514,-0.07032 0.01933,0 0.03514,-0.05537 0.03514,-0.12306 0,-0.06768 0.01581,-0.123056 0.03518,-0.123056 0.02152,0 0.03514,-0.169895 0.03514,-0.439473 0,-0.269578 -0.01362,-0.439477 -0.03514,-0.439477 -0.01933,0 -0.03518,-0.04649 -0.03518,-0.103365 0,-0.05687 -0.0158,-0.113207 -0.03514,-0.125165 -0.01933,-0.01195 -0.03514,-0.06039 -0.03514,-0.107584 0,-0.0472 -0.01185,-0.08596 -0.02635,-0.08623 -0.0145,0 -0.0566,-0.06346 -0.09352,-0.140461 -0.308869,-0.644714 -1.40282,-1.012999 -2.218135,-0.746581 m 6.258616,5.868636 c -0.07708,0.0091 -0.15619,0.02839 -0.175789,0.04281 -0.01961,0.0144 -0.106798,0.04842 -0.193811,0.07558 -0.08701,0.02714 -0.18889,0.07744 -0.226336,0.111804 -0.03751,0.0343 -0.08112,0.0624 -0.09703,0.0624 -0.06179,0 -0.379801,0.30808 -0.379801,0.368025 0,0.0211 -0.03165,0.06118 -0.07032,0.08904 -0.03867,0.02789 -0.07031,0.07885 -0.07031,0.113212 0,0.03444 -0.01581,0.06258 -0.03518,0.06258 -0.01933,0 -0.03518,0.03165 -0.03518,0.07032 0,0.03867 -0.01581,0.07032 -0.03514,0.07032 -0.01933,0 -0.03514,0.03165 -0.03514,0.07031 0,0.03867 -0.01585,0.07032 -0.03518,0.07032 -0.01933,0 -0.03514,0.06328 -0.03514,0.140634 0,0.07735 -0.0158,0.140629 -0.03514,0.140629 -0.0211,0 -0.03518,0.140633 -0.03518,0.351586 0,0.210952 0.01408,0.351581 0.03518,0.351581 0.01933,0 0.03514,0.04764 0.03514,0.105915 0,0.05828 0.01478,0.133425 0.03286,0.167004 0.01803,0.03355 0.05354,0.112511 0.07885,0.175351 0.02542,0.06285 0.05801,0.114268 0.07268,0.114268 0.01459,0 0.02654,0.02426 0.02654,0.05388 0,0.0297 0.05142,0.107673 0.114262,0.173419 0.06285,0.06566 0.153819,0.167524 0.202155,0.226242 0.04834,0.0588 0.107681,0.10732 0.131849,0.107938 0.02417,9.45e-4 0.04396,0.01687 0.04396,0.03621 0,0.01933 0.02375,0.03514 0.05273,0.03514 0.029,0 0.05274,0.01195 0.05274,0.02654 0,0.04991 0.202508,0.116368 0.338749,0.111275 0.07471,-0.0028 0.242942,0.01487 0.373816,0.03927 0.190215,0.03551 0.292347,0.03569 0.509801,9.46e-4 0.149515,-0.02389 0.343406,-0.04155 0.430866,-0.03913 0.115577,0.0032 0.179924,-0.0152 0.235827,-0.06724 0.04229,-0.03937 0.0944,-0.07163 0.115758,-0.07163 0.03355,0 0.194775,-0.15795 0.456177,-0.447039 0.03876,-0.04281 0.0704,-0.102132 0.0704,-0.13184 0,-0.0297 0.01185,-0.05406 0.02635,-0.05424 0.03156,0 0.114263,-0.170606 0.114263,-0.235297 0,-0.02515 0.01585,-0.04568 0.03518,-0.04568 0.01933,0 0.03514,-0.05441 0.03514,-0.120942 0,-0.06654 0.0158,-0.130793 0.03514,-0.142743 0.0198,-0.01222 0.03518,-0.181333 0.03518,-0.38674 0,-0.205413 -0.01538,-0.374527 -0.03518,-0.38675 -0.01933,-0.01195 -0.03514,-0.06829 -0.03514,-0.125157 0,-0.05687 -0.01581,-0.103368 -0.03514,-0.103368 -0.01933,0 -0.03518,-0.04025 -0.03518,-0.08938 0,-0.04914 -0.03165,-0.123321 -0.07031,-0.164816 -0.03867,-0.0415 -0.07032,-0.09624 -0.07032,-0.121559 0,-0.02542 -0.01222,-0.04615 -0.02714,-0.04615 -0.01492,0 -0.05528,-0.0523 -0.08974,-0.116205 -0.03439,-0.06381 -0.111014,-0.154786 -0.170342,-0.202155 -0.05924,-0.04728 -0.149431,-0.118663 -0.200314,-0.158657 -0.109522,-0.08596 -0.404592,-0.22615 -0.475956,-0.22615 -0.02761,0 -0.05547,-0.01511 -0.06197,-0.03365 -0.0132,-0.03778 -0.674593,-0.07348 -0.890207,-0.04799 m 4.640456,8.976709 c -0.01195,0.01933 -0.06829,0.03514 -0.125157,0.03514 -0.05687,0 -0.103373,0.01195 -0.103373,0.02654 0,0.01469 -0.05141,0.04887 -0.114263,0.07611 -0.24039,0.10407 -0.52201,0.330578 -0.659214,0.53019 -0.04649,0.06768 -0.09317,0.130962 -0.103809,0.140634 -0.07164,0.06513 -0.156189,0.338842 -0.113036,0.365556 0.01924,0.01185 0.01687,0.08754 -0.0058,0.187571 -0.0487,0.214293 -0.04896,0.647352 -9.46e-4,0.859881 0.02672,0.117172 0.02672,0.175797 0,0.2026 -0.09124,0.09124 0.374262,0.7516 0.618877,0.877817 0.05317,0.02742 0.09668,0.06303 0.09668,0.07911 0,0.01599 0.03165,0.02919 0.07032,0.02919 0.03867,0 0.07032,0.0158 0.07032,0.03514 0,0.01933 0.03165,0.03518 0.07031,0.03518 0.03867,0 0.07032,0.01581 0.07032,0.03514 0,0.01933 0.04746,0.03514 0.105478,0.03514 0.05801,0 0.105474,0.01581 0.105474,0.03514 0,0.0218 0.186771,0.03518 0.490104,0.03518 0.288913,0 0.499071,-0.0144 0.511902,-0.03518 0.01195,-0.01933 0.05098,-0.03514 0.08667,-0.03514 0.07717,0 0.342175,-0.132812 0.438506,-0.219741 0.03755,-0.03384 0.08236,-0.06153 0.09977,-0.06153 0.04966,0 0.412233,-0.390701 0.412233,-0.444223 0,-0.02635 0.01581,-0.04799 0.03514,-0.04799 0.01933,0 0.03514,-0.03165 0.03514,-0.07032 0,-0.03867 0.01585,-0.07032 0.03518,-0.07032 0.01933,0 0.03514,-0.0303 0.03514,-0.06741 0,-0.037 0.0198,-0.07392 0.04392,-0.08201 0.03314,-0.01106 0.04397,-0.181854 0.04397,-0.694379 0,-0.512515 -0.01083,-0.683382 -0.04397,-0.694378 -0.02417,-0.0081 -0.04392,-0.04499 -0.04392,-0.082 0,-0.03709 -0.0158,-0.06741 -0.03514,-0.06741 -0.01933,0 -0.03518,-0.03165 -0.03518,-0.07032 0,-0.03867 -0.01581,-0.07031 -0.03514,-0.07031 -0.01933,0 -0.03514,-0.02375 -0.03514,-0.05274 0,-0.029 -0.01581,-0.05273 -0.03514,-0.05273 -0.01933,0 -0.03518,-0.01687 -0.03518,-0.03746 0,-0.04406 -0.342262,-0.384463 -0.386564,-0.384463 -0.01669,0 -0.05124,-0.01975 -0.07673,-0.04396 -0.0755,-0.07137 -0.346483,-0.202164 -0.418995,-0.202164 -0.03686,0 -0.06698,-0.01581 -0.06698,-0.03514 0,-0.0218 -0.186779,-0.03514 -0.4901,-0.03514 -0.288911,0 -0.499074,0.01441 -0.511906,0.03514 m -4.640902,9.016525 c -0.116024,0.02487 -0.27028,0.03728 -0.342788,0.02752 -0.08508,-0.01134 -0.131849,-0.0037 -0.131849,0.02217 0,0.02189 -0.03165,0.03983 -0.07031,0.03983 -0.03867,0 -0.07102,0.01185 -0.07199,0.02635 -9.46e-4,0.0145 -0.07981,0.08175 -0.175351,0.149427 -0.09563,0.06768 -0.173948,0.1329 -0.174214,0.145021 0,0.01204 -0.05573,0.08236 -0.123409,0.156282 -0.06768,0.07393 -0.123051,0.154966 -0.123051,0.180185 0,0.02523 -0.01581,0.04587 -0.03514,0.04587 -0.01933,0 -0.03514,0.03165 -0.03514,0.07032 0,0.03867 -0.01585,0.07031 -0.03518,0.07031 -0.01933,0 -0.03514,0.03068 -0.03514,0.06821 0,0.03751 -0.0158,0.07805 -0.03514,0.09001 -0.01933,0.01195 -0.03518,0.06732 -0.03518,0.123051 0,0.05572 -0.0158,0.111097 -0.03514,0.123056 -0.01961,0.01213 -0.03514,0.175439 -0.03514,0.369158 0,0.193724 0.01557,0.357033 0.03514,0.369164 0.01933,0.01195 0.03514,0.0762 0.03514,0.142743 0,0.06653 0.0158,0.120941 0.03518,0.120941 0.01933,0 0.03514,0.03165 0.03514,0.07032 0,0.03867 0.0158,0.07031 0.03514,0.07031 0.01933,0 0.03518,0.03165 0.03518,0.07032 0,0.03867 0.01581,0.07032 0.03514,0.07032 0.01933,0 0.03514,0.02812 0.03514,0.06258 0,0.03434 0.03165,0.08535 0.07032,0.113208 0.03867,0.02784 0.07032,0.07972 0.07032,0.115322 0,0.03551 0.0158,0.05484 0.03518,0.0429 0.01933,-0.01195 0.03514,-0.0057 0.03514,0.0139 0,0.03639 0.164011,0.214638 0.197418,0.214638 0.01009,0 0.08745,0.04747 0.17174,0.105479 0.08429,0.05802 0.170263,0.105474 0.190908,0.105474 0.02068,0 0.03765,0.01581 0.03765,0.03514 0,0.01933 0.04429,0.03518 0.09845,0.03518 0.05414,0 0.113473,0.01422 0.13184,0.03156 0.09898,0.09352 0.998149,0.09238 1.056072,-0.0014 0.01027,-0.01654 0.04886,-0.03016 0.08579,-0.03016 0.037,0 0.123581,-0.03165 0.192399,-0.07031 0.06883,-0.03867 0.141251,-0.07032 0.160851,-0.07032 0.0197,0 0.07392,-0.0356 0.120685,-0.07911 0.04675,-0.0435 0.139667,-0.124194 0.206552,-0.179306 0.06679,-0.05503 0.14054,-0.145992 0.163746,-0.202159 0.02328,-0.05608 0.05616,-0.10196 0.07322,-0.10196 0.01696,0 0.03118,-0.0198 0.03165,-0.04397 9.45e-4,-0.02416 0.03175,-0.0835 0.06952,-0.13184 0.03778,-0.04834 0.06909,-0.123502 0.06953,-0.167009 9.46e-4,-0.0435 0.01659,-0.0791 0.03597,-0.0791 0.01933,0 0.03514,-0.0465 0.03514,-0.103374 0,-0.05687 0.01585,-0.113207 0.03518,-0.125156 0.01975,-0.01223 0.03514,-0.181333 0.03514,-0.38675 0,-0.205403 -0.01539,-0.374517 -0.03514,-0.386736 -0.01933,-0.01195 -0.03518,-0.07621 -0.03518,-0.142744 0,-0.06653 -0.01581,-0.120941 -0.03514,-0.120941 -0.01933,0 -0.03514,-0.03165 -0.03514,-0.07032 0,-0.03867 -0.01581,-0.07031 -0.03514,-0.07031 -0.01933,0 -0.03518,-0.03165 -0.03518,-0.07032 0,-0.03867 -0.01581,-0.07032 -0.03514,-0.07032 -0.01933,0 -0.03514,-0.02426 -0.03514,-0.05397 0,-0.05863 -0.06425,-0.136678 -0.332865,-0.404671 -0.09616,-0.09581 -0.195043,-0.174213 -0.219741,-0.174213 -0.02477,0 -0.04508,-0.01195 -0.04508,-0.02654 0,-0.04975 -0.213062,-0.121211 -0.297882,-0.09994 -0.04638,0.01167 -0.184312,-0.0023 -0.306401,-0.03114 -0.26466,-0.0624 -0.43113,-0.06293 -0.714158,-0.0023 m -6.416368,5.99605 c -0.04834,0.03778 -0.107668,0.06908 -0.13184,0.06953 -0.02417,9.45e-4 -0.04397,0.01659 -0.04397,0.03593 0,0.01933 -0.01822,0.03514 -0.04034,0.03514 -0.05652,0 -0.557342,0.525097 -0.557342,0.584331 0,0.02672 -0.01185,0.04861 -0.0264,0.04878 -0.03523,0 -0.114263,0.173864 -0.114263,0.250769 0,0.03365 -0.0158,0.07102 -0.03514,0.08297 -0.01933,0.01195 -0.03514,0.08316 -0.03514,0.15822 0,0.07505 -0.0158,0.146253 -0.03518,0.158211 -0.01933,0.01195 -0.03514,0.130613 -0.03514,0.263685 0,0.133071 0.01581,0.251735 0.03514,0.263684 0.01933,0.01195 0.03518,0.08412 0.03518,0.160322 0,0.07621 0.0158,0.138527 0.03514,0.138527 0.01933,0 0.03514,0.04746 0.03514,0.105479 0,0.05801 0.01581,0.105474 0.03518,0.105474 0.01933,0 0.03514,0.03165 0.03514,0.07031 0,0.03867 0.0132,0.07032 0.02919,0.07032 0.01608,0 0.05169,0.04313 0.07911,0.09589 0.07497,0.144054 0.456,0.517521 0.586088,0.574483 0.06284,0.02742 0.114262,0.06188 0.114262,0.07656 0,0.01459 0.02389,0.02654 0.05317,0.02654 0.02928,0 0.08069,0.0139 0.114263,0.03086 0.385518,0.194779 1.190115,0.140016 1.615524,-0.109874 0.238644,-0.140193 0.552254,-0.434292 0.590053,-0.553299 0.01241,-0.03895 0.03728,-0.07085 0.05528,-0.07085 0.01803,0 0.03277,-0.03165 0.03277,-0.07031 0,-0.03867 0.0158,-0.07032 0.03514,-0.07032 0.01933,0 0.03514,-0.03068 0.03514,-0.0682 0,-0.03755 0.0158,-0.07805 0.03518,-0.09 0.01933,-0.01195 0.03514,-0.06733 0.03514,-0.123056 0,-0.05573 0.01581,-0.111102 0.03514,-0.123051 0.0204,-0.0126 0.03514,-0.205417 0.03514,-0.459174 0,-0.268166 -0.01362,-0.437368 -0.03514,-0.437368 -0.01933,0 -0.03514,-0.05538 -0.03514,-0.123056 0,-0.06768 -0.0158,-0.123052 -0.03514,-0.123052 -0.01933,0 -0.03518,-0.03165 -0.03518,-0.07031 0,-0.03867 -0.01581,-0.07032 -0.03514,-0.07032 -0.01933,0 -0.03514,-0.03165 -0.03514,-0.07032 0,-0.03867 -0.01478,-0.07031 -0.03277,-0.07031 -0.01803,0 -0.04253,-0.03086 -0.05458,-0.06856 -0.01195,-0.0376 -0.06839,-0.118394 -0.125343,-0.179487 -0.05705,-0.06099 -0.103717,-0.125157 -0.103717,-0.142386 0,-0.01734 -0.02375,-0.03146 -0.05274,-0.03146 -0.029,0 -0.05273,-0.01581 -0.05273,-0.03514 0,-0.01933 -0.01654,-0.03514 -0.03667,-0.03514 -0.02012,0 -0.07058,-0.03165 -0.112069,-0.07032 -0.0415,-0.03867 -0.09625,-0.07032 -0.121559,-0.07032 -0.02542,0 -0.04615,-0.0158 -0.04615,-0.03514 0,-0.01933 -0.03068,-0.03514 -0.0682,-0.03514 -0.03751,0 -0.0791,-0.01748 -0.09229,-0.03895 -0.01715,-0.0277 -0.03175,-0.02645 -0.05081,0.0042 -0.02073,0.03365 -0.077,0.03444 -0.253404,0.0037 -0.28109,-0.04896 -0.558397,-0.05028 -0.802841,-0.0042 -0.126133,0.02389 -0.19891,0.02389 -0.222818,0 -0.05124,-0.05125 -0.09774,-0.04299 -0.197237,0.03481"
       stroke="none"
       fill="#24bc9c"
       fill-rule="evenodd"
       style="fill:#ffffff;fill-opacity:1;stroke-width:0.0878956" />
    <path
       id="path300946"
       d="m 41.052683,14.390931 c -0.009,0.01459 0.01775,0.02979 0.05942,0.03384 0.04164,0.0042 0.183522,0.02189 0.315283,0.03965 0.148544,0.02003 0.335496,0.01943 0.492215,-0.0014 0.138965,-0.01855 0.288294,-0.03639 0.33181,-0.03965 0.0435,-0.0033 0.0791,-0.01952 0.0791,-0.03621 0,-0.01706 -0.07321,-0.01706 -0.166999,0 -0.205678,0.03736 -0.748166,0.03955 -0.947169,0.0037 -0.08104,-0.0145 -0.154604,-0.0145 -0.163654,0 m -4.938613,4.425199 c 0.139848,0.150305 0.169202,0.262639 0.169202,0.646656 0,0.220968 0.0145,0.356238 0.03988,0.371882 0.02919,0.01803 0.03551,-0.07822 0.02375,-0.358269 -0.01785,-0.425237 -0.07673,-0.602253 -0.233629,-0.702191 l -0.09369,-0.0596 0.09448,0.101524 m 10.883697,1.514643 c -0.109871,0.02849 -0.06522,0.06328 0.09669,0.07524 0.554703,0.04113 1.287052,-0.0028 1.167166,-0.06971 -0.03086,-0.01724 -0.09115,-0.01617 -0.140284,0.0028 -0.22141,0.08412 -0.717575,0.08016 -1.009304,-0.0081 -0.029,-0.0088 -0.08043,-0.0088 -0.114267,0 m -10.692344,0.722766 c -0.03621,0.135358 -0.02505,1.145544 0.01302,1.169015 0.02296,0.01413 0.03518,-0.19891 0.03518,-0.613165 0,-0.628628 -0.007,-0.709404 -0.04817,-0.55585 m 0.0014,2.967969 c -0.037,0.0369 -0.0263,1.113202 0.01167,1.17192 0.02268,0.03514 0.0343,-0.155404 0.03462,-0.571322 0,-0.343234 -0.0048,-0.624059 -0.01115,-0.624059 -0.0065,0 -0.02231,0.01055 -0.03514,0.02347 m -0.0014,3.008938 c -0.03216,0.120068 -0.02147,1.053694 0.01302,1.133856 0.01845,0.0429 0.03118,-0.180185 0.03267,-0.571322 0.0023,-0.634168 -0.0042,-0.717054 -0.04569,-0.562534 m 14.3394,0.053 c -0.05863,0.298403 -0.01785,1.160041 0.05274,1.116362 0.01482,-0.0092 0.0099,-0.09202 -0.01116,-0.184321 -0.02092,-0.0922 -0.03806,-0.286272 -0.03806,-0.431302 0,-0.145031 0.01715,-0.339107 0.03806,-0.431303 0.02101,-0.09229 0.02603,-0.175179 0.01116,-0.184321 -0.01478,-0.0092 -0.03853,0.04253 -0.05274,0.114885 m -14.340198,2.911977 c -0.03658,0.09537 -0.02416,1.133861 0.0138,1.157322 0.02296,0.01417 0.03518,-0.193017 0.03518,-0.595578 0,-0.605344 -0.006,-0.673813 -0.04896,-0.561744 m 0.0023,2.956285 c -0.03434,0.03434 -0.02384,1.106871 0.01166,1.189497 0.01845,0.0429 0.03118,-0.180184 0.03267,-0.571322 0.0014,-0.352905 -0.0028,-0.641646 -0.0092,-0.641646 -0.0065,0 -0.02231,0.01055 -0.03514,0.02347 m 10.910765,1.807845 c -0.04834,0.02031 -0.131404,0.02831 -0.184582,0.01775 -0.05318,-0.01046 -0.09669,-0.0053 -0.09669,0.01143 0,0.0624 0.10961,0.06864 0.341565,0.01952 0.302633,-0.06407 0.429899,-0.06363 0.711166,0.0028 0.124548,0.02933 0.251118,0.04239 0.281272,0.02891 0.151968,-0.06803 -0.892234,-0.147661 -1.052731,-0.08025 m -10.90602,0.594612 c -0.01325,0.029 -0.02919,0.230115 -0.03542,0.446867 -0.01125,0.390255 -0.0125,0.395177 -0.125165,0.511461 -0.06258,0.06452 -0.113738,0.13158 -0.113738,0.148902 0,0.10776 0.247162,-0.256217 0.281885,-0.415046 0.04132,-0.189503 0.03491,-0.784826 -0.0076,-0.692184 m 4.896235,5.381687 c -0.04711,0.01943 -0.110401,0.02584 -0.140638,0.01432 -0.03867,-0.01478 -0.04401,-0.0099 -0.01803,0.01636 0.02612,0.02635 0.09861,0.02575 0.246107,-0.0018 0.195476,-0.03672 0.642255,-0.02389 0.921059,0.02645 0.06284,0.01134 0.114262,0.0069 0.114262,-0.0098 0,-0.05916 -0.991814,-0.09933 -1.122776,-0.04545"
       stroke="none"
       fill="#6cbcae"
       fill-rule="evenodd"
       style="fill:#ffffff;stroke-width:0.0878956" />
  </g>
</svg>
